<mxfile host="app.diagrams.net" agent="Mozilla/5.0 (Windows NT 10.0; Win64; x64) AppleWebKit/537.36 (KHTML, like Gecko) Chrome/138.0.0.0 Safari/537.36 Edg/138.0.0.0" version="27.1.3">
  <diagram name="Page-1" id="h5E2U870sblz1VwzlgBg">
    <mxGraphModel dx="1796" dy="1040" grid="0" gridSize="10" guides="1" tooltips="1" connect="1" arrows="1" fold="1" page="1" pageScale="1" pageWidth="1100" pageHeight="850" math="0" shadow="0">
      <root>
        <mxCell id="0" />
        <mxCell id="1" parent="0" />
        <mxCell id="1vpwMWcvHp71MWnnVMOU-66" style="edgeStyle=orthogonalEdgeStyle;rounded=0;orthogonalLoop=1;jettySize=auto;html=1;exitX=0.5;exitY=0;exitDx=0;exitDy=0;entryX=1;entryY=0.5;entryDx=0;entryDy=0;endArrow=none;startFill=0;" edge="1" parent="1" source="1vpwMWcvHp71MWnnVMOU-1" target="1vpwMWcvHp71MWnnVMOU-39">
          <mxGeometry relative="1" as="geometry" />
        </mxCell>
        <mxCell id="1vpwMWcvHp71MWnnVMOU-1" value="AppUser" style="swimlane;fontStyle=0;childLayout=stackLayout;horizontal=1;startSize=26;fillColor=#e1d5e7;horizontalStack=0;resizeParent=1;resizeParentMax=0;resizeLast=0;collapsible=1;marginBottom=0;whiteSpace=wrap;html=1;strokeColor=#9673a6;" vertex="1" parent="1">
          <mxGeometry x="205" y="170" width="160" height="206" as="geometry">
            <mxRectangle x="80" y="40" width="90" height="30" as="alternateBounds" />
          </mxGeometry>
        </mxCell>
        <mxCell id="1vpwMWcvHp71MWnnVMOU-2" value="- ID: int&lt;div&gt;- Email: string&lt;/div&gt;&lt;div&gt;- PasswordHash: string&lt;/div&gt;&lt;div&gt;- FullName: string&lt;/div&gt;&lt;div&gt;- PhoneNumber: string&lt;/div&gt;&lt;div&gt;- DocumentID: string&lt;/div&gt;&lt;div&gt;- CreationDate: DateTime&lt;/div&gt;&lt;div&gt;- DeletedAt: DateTime&lt;/div&gt;&lt;div&gt;- BirthDate: DateTime&lt;/div&gt;&lt;div&gt;- Region: string&lt;/div&gt;" style="text;strokeColor=none;fillColor=none;align=left;verticalAlign=top;spacingLeft=4;spacingRight=4;overflow=hidden;rotatable=0;points=[[0,0.5],[1,0.5]];portConstraint=eastwest;whiteSpace=wrap;html=1;" vertex="1" parent="1vpwMWcvHp71MWnnVMOU-1">
          <mxGeometry y="26" width="160" height="154" as="geometry" />
        </mxCell>
        <mxCell id="1vpwMWcvHp71MWnnVMOU-3" value="+ ValidationResult()" style="text;strokeColor=none;fillColor=none;align=left;verticalAlign=top;spacingLeft=4;spacingRight=4;overflow=hidden;rotatable=0;points=[[0,0.5],[1,0.5]];portConstraint=eastwest;whiteSpace=wrap;html=1;" vertex="1" parent="1vpwMWcvHp71MWnnVMOU-1">
          <mxGeometry y="180" width="160" height="26" as="geometry" />
        </mxCell>
        <mxCell id="1vpwMWcvHp71MWnnVMOU-5" value="AppRole" style="swimlane;fontStyle=0;childLayout=stackLayout;horizontal=1;startSize=26;fillColor=#e1d5e7;horizontalStack=0;resizeParent=1;resizeParentMax=0;resizeLast=0;collapsible=1;marginBottom=0;whiteSpace=wrap;html=1;strokeColor=#9673a6;" vertex="1" parent="1">
          <mxGeometry x="435" y="228" width="140" height="70" as="geometry" />
        </mxCell>
        <mxCell id="1vpwMWcvHp71MWnnVMOU-6" value="- ID: int&lt;div&gt;- RolName: string&lt;/div&gt;" style="text;strokeColor=none;fillColor=none;align=left;verticalAlign=top;spacingLeft=4;spacingRight=4;overflow=hidden;rotatable=0;points=[[0,0.5],[1,0.5]];portConstraint=eastwest;whiteSpace=wrap;html=1;" vertex="1" parent="1vpwMWcvHp71MWnnVMOU-5">
          <mxGeometry y="26" width="140" height="44" as="geometry" />
        </mxCell>
        <mxCell id="1vpwMWcvHp71MWnnVMOU-9" style="rounded=0;orthogonalLoop=1;jettySize=auto;html=1;exitX=1;exitY=0.5;exitDx=0;exitDy=0;entryX=0.8;entryY=0.833;entryDx=0;entryDy=0;entryPerimeter=0;endArrow=none;startFill=0;" edge="1" parent="1" source="1vpwMWcvHp71MWnnVMOU-1" target="1vpwMWcvHp71MWnnVMOU-53">
          <mxGeometry relative="1" as="geometry">
            <mxPoint x="435" y="272.29399999999987" as="targetPoint" />
          </mxGeometry>
        </mxCell>
        <mxCell id="1vpwMWcvHp71MWnnVMOU-10" value="AppUserRole" style="swimlane;fontStyle=0;childLayout=stackLayout;horizontal=1;startSize=26;fillColor=#e1d5e7;horizontalStack=0;resizeParent=1;resizeParentMax=0;resizeLast=0;collapsible=1;marginBottom=0;whiteSpace=wrap;html=1;strokeColor=#9673a6;" vertex="1" parent="1">
          <mxGeometry x="435" y="370" width="140" height="70" as="geometry" />
        </mxCell>
        <mxCell id="1vpwMWcvHp71MWnnVMOU-11" value="- AppUser_ID: int&lt;div&gt;- AppRole_ID: int&lt;/div&gt;" style="text;strokeColor=none;fillColor=none;align=left;verticalAlign=top;spacingLeft=4;spacingRight=4;overflow=hidden;rotatable=0;points=[[0,0.5],[1,0.5]];portConstraint=eastwest;whiteSpace=wrap;html=1;" vertex="1" parent="1vpwMWcvHp71MWnnVMOU-10">
          <mxGeometry y="26" width="140" height="44" as="geometry" />
        </mxCell>
        <mxCell id="1vpwMWcvHp71MWnnVMOU-14" value="Dim_Acount" style="swimlane;fontStyle=0;childLayout=stackLayout;horizontal=1;startSize=26;fillColor=#e1d5e7;horizontalStack=0;resizeParent=1;resizeParentMax=0;resizeLast=0;collapsible=1;marginBottom=0;whiteSpace=wrap;html=1;strokeColor=#9673a6;" vertex="1" parent="1">
          <mxGeometry x="205" y="450" width="160" height="130" as="geometry" />
        </mxCell>
        <mxCell id="1vpwMWcvHp71MWnnVMOU-15" value="- ID: int&lt;div&gt;- Account_Type: string&lt;/div&gt;&lt;div&gt;- Account_Status: string&lt;/div&gt;&lt;div&gt;- AppUser_ID: int&lt;/div&gt;&lt;div&gt;- Opening_Date: DateTime&lt;/div&gt;&lt;div&gt;- Currency: string&lt;/div&gt;" style="text;strokeColor=none;fillColor=none;align=left;verticalAlign=top;spacingLeft=4;spacingRight=4;overflow=hidden;rotatable=0;points=[[0,0.5],[1,0.5]];portConstraint=eastwest;whiteSpace=wrap;html=1;" vertex="1" parent="1vpwMWcvHp71MWnnVMOU-14">
          <mxGeometry y="26" width="160" height="104" as="geometry" />
        </mxCell>
        <mxCell id="1vpwMWcvHp71MWnnVMOU-22" value="Dim_Market_Asset" style="swimlane;fontStyle=0;childLayout=stackLayout;horizontal=1;startSize=26;fillColor=#e1d5e7;horizontalStack=0;resizeParent=1;resizeParentMax=0;resizeLast=0;collapsible=1;marginBottom=0;whiteSpace=wrap;html=1;strokeColor=#9673a6;" vertex="1" parent="1">
          <mxGeometry x="920" y="293" width="140" height="130" as="geometry" />
        </mxCell>
        <mxCell id="1vpwMWcvHp71MWnnVMOU-23" value="- ID: int&lt;div&gt;- Asset_Name: string&lt;/div&gt;&lt;div&gt;- Asset_Type: string&lt;/div&gt;&lt;div&gt;- Symbol: string&lt;/div&gt;&lt;div&gt;- Base_Currency: string&lt;/div&gt;&lt;div&gt;- API_Source: string&lt;/div&gt;" style="text;strokeColor=none;fillColor=none;align=left;verticalAlign=top;spacingLeft=4;spacingRight=4;overflow=hidden;rotatable=0;points=[[0,0.5],[1,0.5]];portConstraint=eastwest;whiteSpace=wrap;html=1;" vertex="1" parent="1vpwMWcvHp71MWnnVMOU-22">
          <mxGeometry y="26" width="140" height="104" as="geometry" />
        </mxCell>
        <mxCell id="1vpwMWcvHp71MWnnVMOU-26" value="Dim_Time" style="swimlane;fontStyle=0;childLayout=stackLayout;horizontal=1;startSize=26;fillColor=#e1d5e7;horizontalStack=0;resizeParent=1;resizeParentMax=0;resizeLast=0;collapsible=1;marginBottom=0;whiteSpace=wrap;html=1;strokeColor=#9673a6;" vertex="1" parent="1">
          <mxGeometry x="610" y="480" width="150" height="140" as="geometry" />
        </mxCell>
        <mxCell id="1vpwMWcvHp71MWnnVMOU-27" value="- ID: int&lt;div&gt;- date_Date: DateTime&lt;/div&gt;&lt;div&gt;- date_Year: int&lt;/div&gt;&lt;div&gt;- date_Month: int&lt;/div&gt;&lt;div&gt;- date_Quarter: int&lt;/div&gt;&lt;div&gt;- Weekday_Name: string&lt;/div&gt;&lt;div&gt;-Is_Weekend: bool&lt;/div&gt;" style="text;strokeColor=none;fillColor=none;align=left;verticalAlign=top;spacingLeft=4;spacingRight=4;overflow=hidden;rotatable=0;points=[[0,0.5],[1,0.5]];portConstraint=eastwest;whiteSpace=wrap;html=1;" vertex="1" parent="1vpwMWcvHp71MWnnVMOU-26">
          <mxGeometry y="26" width="150" height="114" as="geometry" />
        </mxCell>
        <mxCell id="1vpwMWcvHp71MWnnVMOU-30" value="Dim_Transaction_Type" style="swimlane;fontStyle=0;childLayout=stackLayout;horizontal=1;startSize=26;fillColor=#e1d5e7;horizontalStack=0;resizeParent=1;resizeParentMax=0;resizeLast=0;collapsible=1;marginBottom=0;whiteSpace=wrap;html=1;strokeColor=#9673a6;" vertex="1" parent="1">
          <mxGeometry x="485" y="695" width="250" height="70" as="geometry" />
        </mxCell>
        <mxCell id="1vpwMWcvHp71MWnnVMOU-31" value="- ID: int&lt;div&gt;- Dim_Transaction_Type_Description: string&lt;/div&gt;" style="text;strokeColor=none;fillColor=none;align=left;verticalAlign=top;spacingLeft=4;spacingRight=4;overflow=hidden;rotatable=0;points=[[0,0.5],[1,0.5]];portConstraint=eastwest;whiteSpace=wrap;html=1;" vertex="1" parent="1vpwMWcvHp71MWnnVMOU-30">
          <mxGeometry y="26" width="250" height="44" as="geometry" />
        </mxCell>
        <mxCell id="1vpwMWcvHp71MWnnVMOU-34" value="Fact_Market_Asset_History" style="swimlane;fontStyle=0;childLayout=stackLayout;horizontal=1;startSize=26;fillColor=#e1d5e7;horizontalStack=0;resizeParent=1;resizeParentMax=0;resizeLast=0;collapsible=1;marginBottom=0;whiteSpace=wrap;html=1;strokeColor=#9673a6;" vertex="1" parent="1">
          <mxGeometry x="910" y="485" width="160" height="130" as="geometry" />
        </mxCell>
        <mxCell id="1vpwMWcvHp71MWnnVMOU-35" value="- ID: int&lt;div&gt;- Asset_ID: string&lt;/div&gt;&lt;div&gt;- Time_ID: string&lt;/div&gt;&lt;div&gt;- Open_Price: decimal&lt;/div&gt;&lt;div&gt;- Close_Price: decimal&lt;/div&gt;&lt;div&gt;- Trending_Volume: decimal&lt;/div&gt;" style="text;strokeColor=none;fillColor=none;align=left;verticalAlign=top;spacingLeft=4;spacingRight=4;overflow=hidden;rotatable=0;points=[[0,0.5],[1,0.5]];portConstraint=eastwest;whiteSpace=wrap;html=1;" vertex="1" parent="1vpwMWcvHp71MWnnVMOU-34">
          <mxGeometry y="26" width="160" height="104" as="geometry" />
        </mxCell>
        <mxCell id="1vpwMWcvHp71MWnnVMOU-38" value="Fact_Notification" style="swimlane;fontStyle=0;childLayout=stackLayout;horizontal=1;startSize=26;fillColor=#e1d5e7;horizontalStack=0;resizeParent=1;resizeParentMax=0;resizeLast=0;collapsible=1;marginBottom=0;whiteSpace=wrap;html=1;strokeColor=#9673a6;" vertex="1" parent="1">
          <mxGeometry x="15" y="10" width="190" height="130" as="geometry" />
        </mxCell>
        <mxCell id="1vpwMWcvHp71MWnnVMOU-39" value="- ID: int&lt;div&gt;- AppUser_ID: int&lt;/div&gt;&lt;div&gt;- Time_ID: int&lt;/div&gt;&lt;div&gt;- Notification_Type: string&lt;/div&gt;&lt;div&gt;- Channel: string&lt;/div&gt;&lt;div&gt;- Fact_Notification_Status: string&lt;/div&gt;" style="text;strokeColor=none;fillColor=none;align=left;verticalAlign=top;spacingLeft=4;spacingRight=4;overflow=hidden;rotatable=0;points=[[0,0.5],[1,0.5]];portConstraint=eastwest;whiteSpace=wrap;html=1;" vertex="1" parent="1vpwMWcvHp71MWnnVMOU-38">
          <mxGeometry y="26" width="190" height="104" as="geometry" />
        </mxCell>
        <mxCell id="1vpwMWcvHp71MWnnVMOU-42" value="Fact_Transaction" style="swimlane;fontStyle=0;childLayout=stackLayout;horizontal=1;startSize=26;fillColor=#e1d5e7;horizontalStack=0;resizeParent=1;resizeParentMax=0;resizeLast=0;collapsible=1;marginBottom=0;whiteSpace=wrap;html=1;strokeColor=#9673a6;" vertex="1" parent="1">
          <mxGeometry x="180" y="645" width="210" height="170" as="geometry" />
        </mxCell>
        <mxCell id="1vpwMWcvHp71MWnnVMOU-43" value="- ID: int&lt;div&gt;- Source_Account_ID: int&lt;/div&gt;&lt;div&gt;- Destination_Account_ID: int&lt;/div&gt;&lt;div&gt;- Time_ID&lt;/div&gt;&lt;div&gt;- AppUser_ID: int&lt;/div&gt;&lt;div&gt;- Transaction_Amount: decimal&lt;/div&gt;&lt;div&gt;- Balance_After_Transaction: decimal&lt;/div&gt;&lt;div&gt;- Execution_Channel: string&lt;/div&gt;&lt;div&gt;- Transaction_Status: string&lt;/div&gt;" style="text;strokeColor=none;fillColor=none;align=left;verticalAlign=top;spacingLeft=4;spacingRight=4;overflow=hidden;rotatable=0;points=[[0,0.5],[1,0.5]];portConstraint=eastwest;whiteSpace=wrap;html=1;" vertex="1" parent="1vpwMWcvHp71MWnnVMOU-42">
          <mxGeometry y="26" width="210" height="144" as="geometry" />
        </mxCell>
        <mxCell id="1vpwMWcvHp71MWnnVMOU-52" value="1" style="text;html=1;align=center;verticalAlign=middle;resizable=0;points=[];autosize=1;strokeColor=none;fillColor=none;" vertex="1" parent="1">
          <mxGeometry x="355" y="248" width="30" height="30" as="geometry" />
        </mxCell>
        <mxCell id="1vpwMWcvHp71MWnnVMOU-53" value="1 .. *" style="text;html=1;align=center;verticalAlign=middle;resizable=0;points=[];autosize=1;strokeColor=none;fillColor=none;" vertex="1" parent="1">
          <mxGeometry x="395" y="248" width="50" height="30" as="geometry" />
        </mxCell>
        <mxCell id="1vpwMWcvHp71MWnnVMOU-54" style="edgeStyle=orthogonalEdgeStyle;rounded=0;orthogonalLoop=1;jettySize=auto;html=1;exitX=0;exitY=0.5;exitDx=0;exitDy=0;entryX=1;entryY=0.5;entryDx=0;entryDy=0;endArrow=none;startFill=0;" edge="1" parent="1" source="1vpwMWcvHp71MWnnVMOU-11" target="1vpwMWcvHp71MWnnVMOU-3">
          <mxGeometry relative="1" as="geometry" />
        </mxCell>
        <mxCell id="1vpwMWcvHp71MWnnVMOU-55" style="edgeStyle=orthogonalEdgeStyle;rounded=0;orthogonalLoop=1;jettySize=auto;html=1;exitX=0.5;exitY=0;exitDx=0;exitDy=0;entryX=0.501;entryY=1.007;entryDx=0;entryDy=0;entryPerimeter=0;endArrow=none;startFill=0;" edge="1" parent="1" source="1vpwMWcvHp71MWnnVMOU-10" target="1vpwMWcvHp71MWnnVMOU-6">
          <mxGeometry relative="1" as="geometry" />
        </mxCell>
        <mxCell id="1vpwMWcvHp71MWnnVMOU-56" style="edgeStyle=orthogonalEdgeStyle;rounded=0;orthogonalLoop=1;jettySize=auto;html=1;exitX=0.5;exitY=0;exitDx=0;exitDy=0;entryX=0.501;entryY=1.022;entryDx=0;entryDy=0;entryPerimeter=0;endArrow=none;startFill=0;" edge="1" parent="1" source="1vpwMWcvHp71MWnnVMOU-14" target="1vpwMWcvHp71MWnnVMOU-3">
          <mxGeometry relative="1" as="geometry" />
        </mxCell>
        <mxCell id="1vpwMWcvHp71MWnnVMOU-57" value="1" style="text;html=1;align=center;verticalAlign=middle;resizable=0;points=[];autosize=1;strokeColor=none;fillColor=none;" vertex="1" parent="1">
          <mxGeometry x="260" y="373" width="30" height="30" as="geometry" />
        </mxCell>
        <mxCell id="1vpwMWcvHp71MWnnVMOU-59" value="1 .. *" style="text;html=1;align=center;verticalAlign=middle;resizable=0;points=[];autosize=1;strokeColor=none;fillColor=none;" vertex="1" parent="1">
          <mxGeometry x="240" y="425" width="50" height="30" as="geometry" />
        </mxCell>
        <mxCell id="1vpwMWcvHp71MWnnVMOU-60" style="edgeStyle=orthogonalEdgeStyle;rounded=0;orthogonalLoop=1;jettySize=auto;html=1;exitX=0.5;exitY=0;exitDx=0;exitDy=0;entryX=0.501;entryY=0.997;entryDx=0;entryDy=0;entryPerimeter=0;endArrow=none;startFill=0;" edge="1" parent="1" source="1vpwMWcvHp71MWnnVMOU-42" target="1vpwMWcvHp71MWnnVMOU-15">
          <mxGeometry relative="1" as="geometry" />
        </mxCell>
        <mxCell id="1vpwMWcvHp71MWnnVMOU-61" value="1" style="text;html=1;align=center;verticalAlign=middle;resizable=0;points=[];autosize=1;strokeColor=none;fillColor=none;" vertex="1" parent="1">
          <mxGeometry x="260" y="575" width="30" height="30" as="geometry" />
        </mxCell>
        <mxCell id="1vpwMWcvHp71MWnnVMOU-62" value="1 .. *" style="text;html=1;align=center;verticalAlign=middle;resizable=0;points=[];autosize=1;strokeColor=none;fillColor=none;" vertex="1" parent="1">
          <mxGeometry x="244" y="621" width="50" height="30" as="geometry" />
        </mxCell>
        <mxCell id="1vpwMWcvHp71MWnnVMOU-63" style="edgeStyle=orthogonalEdgeStyle;rounded=0;orthogonalLoop=1;jettySize=auto;html=1;exitX=1;exitY=0.5;exitDx=0;exitDy=0;entryX=0;entryY=0.5;entryDx=0;entryDy=0;endArrow=none;startFill=0;" edge="1" parent="1" source="1vpwMWcvHp71MWnnVMOU-43" target="1vpwMWcvHp71MWnnVMOU-31">
          <mxGeometry relative="1" as="geometry" />
        </mxCell>
        <mxCell id="1vpwMWcvHp71MWnnVMOU-64" value="1" style="text;html=1;align=center;verticalAlign=middle;resizable=0;points=[];autosize=1;strokeColor=none;fillColor=none;" vertex="1" parent="1">
          <mxGeometry x="385" y="715" width="30" height="30" as="geometry" />
        </mxCell>
        <mxCell id="1vpwMWcvHp71MWnnVMOU-65" value="1" style="text;html=1;align=center;verticalAlign=middle;resizable=0;points=[];autosize=1;strokeColor=none;fillColor=none;" vertex="1" parent="1">
          <mxGeometry x="459" y="717" width="30" height="30" as="geometry" />
        </mxCell>
        <mxCell id="1vpwMWcvHp71MWnnVMOU-67" value="1" style="text;html=1;align=center;verticalAlign=middle;resizable=0;points=[];autosize=1;strokeColor=none;fillColor=none;" vertex="1" parent="1">
          <mxGeometry x="280" y="140" width="30" height="30" as="geometry" />
        </mxCell>
        <mxCell id="1vpwMWcvHp71MWnnVMOU-68" value="1 .. *" style="text;html=1;align=center;verticalAlign=middle;resizable=0;points=[];autosize=1;strokeColor=none;fillColor=none;" vertex="1" parent="1">
          <mxGeometry x="200" y="60" width="50" height="30" as="geometry" />
        </mxCell>
        <mxCell id="1vpwMWcvHp71MWnnVMOU-69" value="1" style="text;html=1;align=center;verticalAlign=middle;resizable=0;points=[];autosize=1;strokeColor=none;fillColor=none;" vertex="1" parent="1">
          <mxGeometry x="358" y="338" width="30" height="30" as="geometry" />
        </mxCell>
        <mxCell id="1vpwMWcvHp71MWnnVMOU-70" value="1 .. *" style="text;html=1;align=center;verticalAlign=middle;resizable=0;points=[];autosize=1;strokeColor=none;fillColor=none;" vertex="1" parent="1">
          <mxGeometry x="395" y="393" width="50" height="30" as="geometry" />
        </mxCell>
        <mxCell id="1vpwMWcvHp71MWnnVMOU-71" value="1" style="text;html=1;align=center;verticalAlign=middle;resizable=0;points=[];autosize=1;strokeColor=none;fillColor=none;" vertex="1" parent="1">
          <mxGeometry x="501" y="295" width="30" height="30" as="geometry" />
        </mxCell>
        <mxCell id="1vpwMWcvHp71MWnnVMOU-73" value="1 .. *" style="text;html=1;align=center;verticalAlign=middle;resizable=0;points=[];autosize=1;strokeColor=none;fillColor=none;" vertex="1" parent="1">
          <mxGeometry x="500" y="346" width="50" height="30" as="geometry" />
        </mxCell>
        <mxCell id="1vpwMWcvHp71MWnnVMOU-74" style="edgeStyle=orthogonalEdgeStyle;rounded=0;orthogonalLoop=1;jettySize=auto;html=1;exitX=0.5;exitY=0;exitDx=0;exitDy=0;entryX=0.494;entryY=0.997;entryDx=0;entryDy=0;entryPerimeter=0;endArrow=none;startFill=0;" edge="1" parent="1" source="1vpwMWcvHp71MWnnVMOU-34" target="1vpwMWcvHp71MWnnVMOU-23">
          <mxGeometry relative="1" as="geometry" />
        </mxCell>
        <mxCell id="1vpwMWcvHp71MWnnVMOU-75" value="1" style="text;html=1;align=center;verticalAlign=middle;resizable=0;points=[];autosize=1;strokeColor=none;fillColor=none;" vertex="1" parent="1">
          <mxGeometry x="965" y="418" width="30" height="30" as="geometry" />
        </mxCell>
        <mxCell id="1vpwMWcvHp71MWnnVMOU-76" value="1 .. *" style="text;html=1;align=center;verticalAlign=middle;resizable=0;points=[];autosize=1;strokeColor=none;fillColor=none;" vertex="1" parent="1">
          <mxGeometry x="945" y="458" width="50" height="30" as="geometry" />
        </mxCell>
        <mxCell id="1vpwMWcvHp71MWnnVMOU-77" style="edgeStyle=orthogonalEdgeStyle;rounded=0;orthogonalLoop=1;jettySize=auto;html=1;exitX=0;exitY=0.5;exitDx=0;exitDy=0;entryX=1;entryY=0.5;entryDx=0;entryDy=0;endArrow=none;startFill=0;" edge="1" parent="1" source="1vpwMWcvHp71MWnnVMOU-35" target="1vpwMWcvHp71MWnnVMOU-27">
          <mxGeometry relative="1" as="geometry" />
        </mxCell>
        <mxCell id="1vpwMWcvHp71MWnnVMOU-78" value="1" style="text;html=1;align=center;verticalAlign=middle;resizable=0;points=[];autosize=1;strokeColor=none;fillColor=none;" vertex="1" parent="1">
          <mxGeometry x="885" y="538" width="30" height="30" as="geometry" />
        </mxCell>
        <mxCell id="1vpwMWcvHp71MWnnVMOU-79" value="1" style="text;html=1;align=center;verticalAlign=middle;resizable=0;points=[];autosize=1;strokeColor=none;fillColor=none;" vertex="1" parent="1">
          <mxGeometry x="755" y="538" width="30" height="30" as="geometry" />
        </mxCell>
        <mxCell id="1vpwMWcvHp71MWnnVMOU-80" style="edgeStyle=orthogonalEdgeStyle;rounded=0;orthogonalLoop=1;jettySize=auto;html=1;exitX=0;exitY=0.5;exitDx=0;exitDy=0;entryX=0.998;entryY=0.104;entryDx=0;entryDy=0;entryPerimeter=0;endArrow=none;startFill=0;" edge="1" parent="1" source="1vpwMWcvHp71MWnnVMOU-27" target="1vpwMWcvHp71MWnnVMOU-43">
          <mxGeometry relative="1" as="geometry">
            <mxPoint x="400" y="680" as="targetPoint" />
          </mxGeometry>
        </mxCell>
        <mxCell id="1vpwMWcvHp71MWnnVMOU-81" value="1" style="text;html=1;align=center;verticalAlign=middle;resizable=0;points=[];autosize=1;strokeColor=none;fillColor=none;" vertex="1" parent="1">
          <mxGeometry x="585" y="536" width="30" height="30" as="geometry" />
        </mxCell>
        <mxCell id="1vpwMWcvHp71MWnnVMOU-82" value="1" style="text;html=1;align=center;verticalAlign=middle;resizable=0;points=[];autosize=1;strokeColor=none;fillColor=none;" vertex="1" parent="1">
          <mxGeometry x="385" y="661" width="30" height="30" as="geometry" />
        </mxCell>
        <mxCell id="1vpwMWcvHp71MWnnVMOU-83" style="edgeStyle=orthogonalEdgeStyle;rounded=0;orthogonalLoop=1;jettySize=auto;html=1;exitX=0.5;exitY=0;exitDx=0;exitDy=0;entryX=1.002;entryY=0.182;entryDx=0;entryDy=0;entryPerimeter=0;endArrow=none;startFill=0;" edge="1" parent="1" source="1vpwMWcvHp71MWnnVMOU-26" target="1vpwMWcvHp71MWnnVMOU-39">
          <mxGeometry relative="1" as="geometry" />
        </mxCell>
        <mxCell id="1vpwMWcvHp71MWnnVMOU-84" value="1" style="text;html=1;align=center;verticalAlign=middle;resizable=0;points=[];autosize=1;strokeColor=none;fillColor=none;" vertex="1" parent="1">
          <mxGeometry x="685" y="450" width="30" height="30" as="geometry" />
        </mxCell>
        <mxCell id="1vpwMWcvHp71MWnnVMOU-85" value="1" style="text;html=1;align=center;verticalAlign=middle;resizable=0;points=[];autosize=1;strokeColor=none;fillColor=none;" vertex="1" parent="1">
          <mxGeometry x="200" y="28" width="30" height="30" as="geometry" />
        </mxCell>
      </root>
    </mxGraphModel>
  </diagram>
</mxfile>
